<?xml version="1.0" standalone="no"?>
<!DOCTYPE svg PUBLIC "-//W3C//DTD SVG 20010904//EN"
 "http://www.w3.org/TR/2001/REC-SVG-20010904/DTD/svg10.dtd">
<svg version="1.0" xmlns="http://www.w3.org/2000/svg"
 width="254.856653pt" height="685.627945pt" viewBox="0 0 254.856653 685.627945"
 preserveAspectRatio="xMidYMid meet">
<metadata>
Created by potrace 1.12, written by Peter Selinger 2001-2015
</metadata>
<g transform="translate(-287.071673,690.904503) scale(0.100000,-0.100000)"
fill="#000000" stroke="none">
<path d="M4092 6890 c-56 -34 -108 -133 -149 -284 -12 -41 -32 -79 -64 -118
-221 -276 -421 -1051 -479 -1858 -6 -85 -15 -169 -21 -186 -27 -89 -37 -1054
-13 -1290 l7 -61 -33 -11 c-171 -60 -328 -341 -409 -737 -54 -260 -54 -264
-58 -1270 -4 -875 -3 -942 13 -972 19 -37 48 -50 70 -32 25 20 56 88 49 108
-6 20 97 315 139 400 37 71 103 141 203 212 91 64 126 77 228 81 l70 3 8 -50
c14 -77 46 -185 73 -237 22 -43 28 -48 57 -48 27 0 36 6 52 36 36 66 140 141
223 159 l32 7 1 -279 c1 -153 4 -305 8 -338 l6 -60 45 0 45 0 6 70 c4 39 7
190 8 338 l1 267 28 0 c32 0 124 -41 170 -77 40 -30 94 -102 86 -114 -3 -5 10
-9 28 -9 31 0 35 4 60 63 31 73 54 153 63 221 l7 48 66 -7 c106 -10 138 -22
225 -84 100 -71 166 -141 203 -212 42 -85 145 -380 139 -400 -7 -20 24 -88 49
-108 22 -18 51 -5 70 32 16 30 17 97 13 972 -4 1006 -4 1010 -58 1270 -81 395
-238 677 -408 736 l-32 11 8 117 c13 184 9 985 -5 1186 -69 970 -214 1618
-455 2043 -14 23 -42 61 -64 85 -30 32 -46 64 -67 132 -46 148 -89 220 -148
251 -36 19 -57 18 -96 -6z m95 -54 c28 -24 85 -132 98 -188 l7 -27 -54 21
c-64 24 -133 21 -195 -9 -24 -12 -43 -18 -43 -14 0 20 43 129 65 167 25 43 59
74 81 74 7 0 26 -11 41 -24z m48 -250 c242 -112 463 -713 574 -1556 24 -182
45 -396 63 -640 17 -231 17 -1064 0 -1305 -51 -714 -146 -1255 -294 -1672
l-40 -112 -58 62 c-68 73 -145 122 -218 139 l-52 13 -1 740 c-1 407 -4 772 -8
810 l-6 70 -45 0 -45 0 -6 -60 c-4 -33 -7 -398 -8 -811 l-1 -751 -34 -6 c-70
-11 -150 -59 -224 -134 l-73 -73 -14 32 c-94 227 -193 631 -250 1023 -58 401
-83 747 -92 1235 l-6 366 76 -4 c153 -8 160 2 155 238 -4 212 -3 210 -126 210
-83 0 -84 0 -77 23 3 12 11 74 16 137 61 757 209 1424 391 1759 57 105 107
181 119 181 6 0 22 14 37 31 32 39 115 79 162 79 19 0 58 -11 85 -24z m-661
-2252 c8 -20 8 -298 0 -318 -9 -23 -139 -23 -148 0 -8 21 -8 319 1 327 3 4 37
7 74 7 52 0 68 -4 73 -16z m-193 -1367 c0 -34 6 -116 12 -182 l12 -120 -40
-31 c-86 -65 -174 -233 -231 -436 -14 -51 -29 -102 -34 -113 -14 -34 -41 -270
-51 -455 -8 -144 -85 -1193 -106 -1443 -3 -38 -10 -64 -15 -59 -13 13 -12
1183 2 1192 9 5 9 41 1 141 -52 646 96 1305 340 1517 43 38 89 63 101 56 4 -3
8 -33 9 -67z m779 -1367 c0 -890 -4 -1410 -10 -1420 -6 -10 -10 490 -10 1420
0 930 4 1430 10 1420 6 -10 10 -530 10 -1420z m846 1378 c255 -210 406 -866
353 -1527 -8 -100 -8 -136 1 -141 14 -9 15 -1179 2 -1192 -5 -5 -12 21 -15 59
-21 250 -98 1299 -106 1443 -10 185 -37 421 -51 455 -5 11 -20 62 -34 113 -57
203 -145 371 -231 436 l-40 31 12 120 c6 66 12 147 12 181 1 33 4 63 7 66 11
11 42 -4 90 -44z m-1592 -400 c3 -13 12 -81 22 -153 50 -400 149 -821 253
-1083 l40 -99 -26 -64 c-14 -35 -33 -108 -42 -161 -13 -79 -19 -97 -31 -93
-22 7 -155 -11 -215 -29 -61 -18 -193 -118 -244 -182 -19 -26 -61 -96 -93
-158 l-57 -111 -1 50 c0 65 26 405 40 515 6 47 13 119 15 160 2 41 6 109 10
150 3 41 15 203 26 360 12 175 28 322 41 380 49 229 128 416 216 513 31 33 40
34 46 5z m1508 -15 c88 -97 167 -284 216 -513 13 -58 29 -205 41 -380 11 -157
23 -319 26 -360 4 -41 8 -109 10 -150 2 -41 9 -113 15 -160 14 -110 40 -450
40 -515 l-1 -50 -57 111 c-32 62 -74 132 -93 158 -51 64 -183 164 -244 182
-58 17 -202 37 -214 30 -5 -3 -11 25 -15 62 -8 81 -20 127 -53 210 l-24 62 40
103 c100 258 196 670 245 1062 26 198 24 195 68 148z m-834 -1434 l-3 -331
-66 -23 c-36 -12 -72 -26 -80 -30 -37 -21 -104 -82 -129 -117 l-29 -39 -14 28
c-66 128 -83 340 -38 485 13 43 28 75 32 72 5 -3 9 6 9 20 0 14 4 26 9 26 5 0
11 10 14 23 8 30 99 130 144 159 46 29 112 57 136 57 16 1 17 -19 15 -330z
m226 300 c84 -39 216 -179 216 -229 0 -11 4 -20 9 -20 11 0 37 -86 56 -185 17
-92 19 -138 6 -163 -5 -9 -15 -44 -21 -76 -7 -33 -21 -79 -31 -102 l-18 -43
-60 59 c-65 66 -140 106 -213 116 l-48 7 0 335 0 335 29 -6 c16 -4 50 -16 75
-28z"/>
<path d="M3852 5651 l-122 -130 26 -323 c14 -178 29 -327 33 -331 5 -5 6 -79
3 -165 -9 -314 31 -661 105 -887 57 -176 127 -277 216 -310 46 -17 49 -17 88
0 184 83 314 613 296 1206 -5 181 -4 193 38 485 24 164 46 308 50 320 5 16
-16 40 -119 134 l-126 114 -164 -3 c-109 -2 -166 1 -171 8 -14 23 -35 7 -153
-118z m442 31 c6 -18 16 -36 22 -40 16 -10 23 -73 10 -77 -6 -2 -93 -6 -193
-9 l-183 -5 0 24 c0 14 4 25 9 25 5 0 17 24 27 53 9 28 19 55 21 60 3 4 66 6
140 5 l136 -3 11 -33z m165 -94 l71 -65 -25 -184 c-14 -101 -28 -195 -32 -209
-10 -39 -33 92 -42 240 -7 117 -12 139 -51 225 -5 11 -16 37 -24 58 l-15 38
23 -19 c14 -10 56 -48 95 -84z m-529 55 c-6 -16 -15 -37 -20 -48 -32 -65 -50
-144 -50 -219 0 -69 -16 -186 -37 -276 -4 -14 -15 71 -24 189 l-18 214 77 83
c42 45 78 83 79 83 1 1 -2 -11 -7 -26z m440 -208 c0 -43 4 -75 10 -75 6 0 10
-22 10 -49 0 -31 5 -53 15 -61 12 -10 15 -33 14 -104 0 -50 4 -122 10 -161 19
-116 25 -454 12 -625 -33 -426 -140 -760 -260 -809 -25 -11 -35 -10 -68 8
-130 66 -232 381 -264 817 -12 169 -8 382 12 657 11 155 14 167 32 167 19 0
19 5 12 110 -6 93 -4 115 11 149 21 49 14 48 262 50 l192 1 0 -75z"/>
</g>
</svg>
