<?xml version="1.0" encoding="UTF-8"?>
<!DOCTYPE svg PUBLIC "-//W3C//DTD SVG 1.1//EN" "http://www.w3.org/Graphics/SVG/1.1/DTD/svg11.dtd">
<svg xmlns="http://www.w3.org/2000/svg" version="1.1" width="854px" height="854px" style="shape-rendering:geometricPrecision; text-rendering:geometricPrecision; image-rendering:optimizeQuality; fill-rule:evenodd; clip-rule:evenodd" xmlns:xlink="http://www.w3.org/1999/xlink">
<g><path style="opacity:1" fill="#040209" d="M 425.5,107.5 C 433.352,108.175 438.852,112.175 442,119.5C 445.464,127.227 448.131,135.227 450,143.5C 458.438,153.368 465.105,164.368 470,176.5C 491.434,237.494 503.267,300.16 505.5,364.5C 511.871,445.769 507.371,526.436 492,606.5C 486.827,630.53 479.493,653.864 470,676.5C 460.191,691.827 446.025,699.494 427.5,699.5C 408.975,699.494 394.809,691.827 385,676.5C 369.208,638.331 359.208,598.665 355,557.5C 343.592,466.925 344.259,376.592 357,286.5C 362.834,245.495 373.501,205.828 389,167.5C 393.011,159.473 398.011,152.14 404,145.5C 406.63,134.605 410.63,124.272 416,114.5C 418.529,111.115 421.696,108.782 425.5,107.5 Z M 426.5,110.5 C 430.894,111.377 434.394,113.71 437,117.5C 441.744,124.963 444.744,132.963 446,141.5C 440.386,137.456 434.219,134.456 427.5,132.5C 420.781,134.456 414.614,137.456 409,141.5C 410.256,132.963 413.256,124.963 418,117.5C 420.464,114.519 423.297,112.186 426.5,110.5 Z M 425.5,136.5 C 439.616,139.326 450.449,146.993 458,159.5C 470.713,185.303 480.046,212.303 486,240.5C 495.484,282.408 501.151,324.408 503,366.5C 508.106,437.511 505.106,508.178 494,578.5C 489.407,610.208 481.073,640.875 469,670.5C 462.621,685.124 451.454,693.624 435.5,696C 423.05,697.638 411.384,695.305 400.5,689C 396.333,686.167 392.833,682.667 390,678.5C 375.368,646.646 365.702,613.313 361,578.5C 351.766,521.162 348.266,463.496 350.5,405.5C 357.906,405.848 365.239,405.348 372.5,404C 374.774,401.656 375.941,398.822 376,395.5C 376.667,386.5 376.667,377.5 376,368.5C 376.21,363.048 373.71,359.882 368.5,359C 363.177,358.501 357.844,358.334 352.5,358.5C 355.422,296.392 367.255,236.059 388,177.5C 393.783,161.066 403.95,148.232 418.5,139C 421.191,138.844 423.524,138.011 425.5,136.5 Z M 355.5,361.5 C 359.846,361.334 364.179,361.501 368.5,362C 369.931,362.465 371.097,363.299 372,364.5C 373.595,375.093 373.928,385.76 373,396.5C 372.602,399.232 371.102,401.065 368.5,402C 362.478,402.575 356.478,402.409 350.5,401.5C 350.801,388.471 351.468,375.471 352.5,362.5C 353.791,362.737 354.791,362.404 355.5,361.5 Z"/></g>
<g><path style="opacity:0.005" fill="#0025ff" d="M 492.5,359.5 C 492.917,358.876 493.584,358.543 494.5,358.5C 495.948,360.362 497.615,361.028 499.5,360.5C 496.554,361.655 493.554,361.821 490.5,361C 492.343,360.841 493.009,360.341 492.5,359.5 Z"/></g>
</svg>
