<?xml version="1.0" encoding="UTF-8"?>
<!DOCTYPE svg PUBLIC "-//W3C//DTD SVG 1.1//EN" "http://www.w3.org/Graphics/SVG/1.1/DTD/svg11.dtd">
<svg xmlns="http://www.w3.org/2000/svg" version="1.1" width="854px" height="854px" style="shape-rendering:geometricPrecision; text-rendering:geometricPrecision; image-rendering:optimizeQuality; fill-rule:evenodd; clip-rule:evenodd" xmlns:xlink="http://www.w3.org/1999/xlink">
<g><path style="opacity:1" fill="#0d1515" d="M 363.5,199.5 C 369.653,198.347 375.986,198.18 382.5,199C 385.009,200.421 387.343,202.088 389.5,204C 387.792,206.043 385.792,207.71 383.5,209C 376.833,209.667 370.167,209.667 363.5,209C 366.167,207.333 368.833,205.667 371.5,204C 368.941,202.223 366.274,200.723 363.5,199.5 Z M 372.5,201.5 C 376.937,199.728 380.937,200.561 384.5,204C 381.131,207.261 377.131,208.261 372.5,207C 377.778,204.934 377.778,203.101 372.5,201.5 Z"/></g>
<g><path style="opacity:1" fill="#0d1515" d="M 472.5,198.5 C 478.842,198.334 485.175,198.5 491.5,199C 488.833,200.667 486.167,202.333 483.5,204C 486.167,205.667 488.833,207.333 491.5,209C 484.833,209.667 478.167,209.667 471.5,209C 469.208,207.71 467.208,206.043 465.5,204C 467.903,202.147 470.236,200.314 472.5,198.5 Z M 474.5,200.5 C 477.187,200.336 479.854,200.503 482.5,201C 477.167,203 477.167,205 482.5,207C 477.869,208.261 473.869,207.261 470.5,204C 472.093,203.051 473.426,201.885 474.5,200.5 Z"/></g>
<g><path style="opacity:1" fill="#0d1515" d="M 359.5,213.5 C 365.653,212.347 371.986,212.18 378.5,213C 381.009,214.421 383.343,216.088 385.5,218C 383.792,220.043 381.792,221.71 379.5,223C 372.833,223.667 366.167,223.667 359.5,223C 362.167,221.333 364.833,219.667 367.5,218C 364.941,216.223 362.274,214.723 359.5,213.5 Z M 368.5,215.5 C 372.937,213.728 376.937,214.561 380.5,218C 377.131,221.261 373.131,222.261 368.5,221C 373.778,218.934 373.778,217.101 368.5,215.5 Z"/></g>
<g><path style="opacity:1" fill="#0d1515" d="M 476.5,212.5 C 482.842,212.334 489.175,212.5 495.5,213C 492.833,214.667 490.167,216.333 487.5,218C 490.167,219.667 492.833,221.333 495.5,223C 488.833,223.667 482.167,223.667 475.5,223C 473.208,221.71 471.208,220.043 469.5,218C 471.903,216.147 474.236,214.314 476.5,212.5 Z M 478.5,214.5 C 481.187,214.336 483.854,214.503 486.5,215C 481.167,217 481.167,219 486.5,221C 481.869,222.261 477.869,221.261 474.5,218C 476.093,217.051 477.426,215.885 478.5,214.5 Z"/></g>
<g><path style="opacity:1" fill="#0d1515" d="M 357.5,628.5 C 363.653,627.347 369.986,627.18 376.5,628C 379.009,629.421 381.343,631.088 383.5,633C 381.792,635.043 379.792,636.71 377.5,638C 370.833,638.667 364.167,638.667 357.5,638C 360.167,636.333 362.833,634.667 365.5,633C 362.941,631.223 360.274,629.723 357.5,628.5 Z M 366.5,630.5 C 370.937,628.728 374.937,629.561 378.5,633C 375.131,636.261 371.131,637.261 366.5,636C 371.778,633.934 371.778,632.101 366.5,630.5 Z"/></g>
<g><path style="opacity:1" fill="#0d1515" d="M 478.5,627.5 C 484.842,627.334 491.175,627.5 497.5,628C 494.833,629.667 492.167,631.333 489.5,633C 492.167,634.667 494.833,636.333 497.5,638C 490.833,638.667 484.167,638.667 477.5,638C 475.208,636.71 473.208,635.043 471.5,633C 473.903,631.147 476.236,629.314 478.5,627.5 Z M 480.5,629.5 C 483.187,629.336 485.854,629.503 488.5,630C 483.167,632 483.167,634 488.5,636C 483.869,637.261 479.869,636.261 476.5,633C 478.093,632.051 479.426,630.885 480.5,629.5 Z"/></g>
<g><path style="opacity:1" fill="#0d1515" d="M 361.5,642.5 C 367.653,641.347 373.986,641.18 380.5,642C 383.009,643.421 385.343,645.088 387.5,647C 385.792,649.043 383.792,650.71 381.5,652C 374.833,652.667 368.167,652.667 361.5,652C 364.167,650.333 366.833,648.667 369.5,647C 366.941,645.223 364.274,643.723 361.5,642.5 Z M 370.5,644.5 C 374.937,642.728 378.937,643.561 382.5,647C 379.131,650.261 375.131,651.261 370.5,650C 375.778,647.934 375.778,646.101 370.5,644.5 Z"/></g>
<g><path style="opacity:1" fill="#0d1515" d="M 474.5,641.5 C 480.842,641.334 487.175,641.5 493.5,642C 490.833,643.667 488.167,645.333 485.5,647C 488.167,648.667 490.833,650.333 493.5,652C 486.833,652.667 480.167,652.667 473.5,652C 471.208,650.71 469.208,649.043 467.5,647C 469.903,645.147 472.236,643.314 474.5,641.5 Z M 476.5,643.5 C 479.187,643.336 481.854,643.503 484.5,644C 479.167,646 479.167,648 484.5,650C 479.869,651.261 475.869,650.261 472.5,647C 474.093,646.051 475.426,644.885 476.5,643.5 Z"/></g>
</svg>
