<?xml version="1.0" encoding="UTF-8"?>
<!DOCTYPE svg PUBLIC "-//W3C//DTD SVG 1.1//EN" "http://www.w3.org/Graphics/SVG/1.1/DTD/svg11.dtd">
<svg xmlns="http://www.w3.org/2000/svg" version="1.1" width="854px" height="854px" style="shape-rendering:geometricPrecision; text-rendering:geometricPrecision; image-rendering:optimizeQuality; fill-rule:evenodd; clip-rule:evenodd" xmlns:xlink="http://www.w3.org/1999/xlink">
<g><path style="opacity:1" fill="#000000" d="M 425.5,475.5 C 427.144,475.286 428.644,475.62 430,476.5C 431.75,479.246 432.75,482.246 433,485.5C 434.097,512.483 434.597,539.483 434.5,566.5C 433.681,635.499 433.514,704.499 434,773.5C 433.758,779.884 433.092,786.218 432,792.5C 430.06,795.608 427.394,796.275 424,794.5C 422.956,792.285 422.29,789.952 422,787.5C 420.935,767.519 420.435,747.519 420.5,727.5C 420.801,651.504 420.968,575.504 421,499.5C 420.664,491.075 422.164,483.075 425.5,475.5 Z M 426.5,479.5 C 427.75,479.577 428.583,480.244 429,481.5C 430.085,486.437 430.752,491.437 431,496.5C 431.667,589.833 431.667,683.167 431,776.5C 430.667,780.167 430.333,783.833 430,787.5C 428.333,794.167 426.667,794.167 425,787.5C 424.667,783.833 424.333,780.167 424,776.5C 423.333,683.167 423.333,589.833 424,496.5C 424.206,490.715 425.04,485.048 426.5,479.5 Z"/></g>
<g><path style="opacity:1" fill="#060501" d="M 382.5,476.5 C 390.125,475.06 394.958,478.06 397,485.5C 400.732,497.557 403.065,509.891 404,522.5C 409.199,586.457 410.199,650.457 407,714.5C 405.734,722.7 402.568,723.534 397.5,717C 388.635,711.232 378.968,707.732 368.5,706.5C 347.38,710.144 331.88,721.477 322,740.5C 315.41,756.236 310.744,772.236 308,788.5C 307.138,790.087 306.471,791.754 306,793.5C 303.978,794.991 302.312,794.658 301,792.5C 300.667,790.167 300.333,787.833 300,785.5C 298.461,725.509 298.128,665.509 299,605.5C 300.276,576.783 306.276,549.116 317,522.5C 322.949,508.551 332.449,497.718 345.5,490C 357.609,484.578 369.943,480.078 382.5,476.5 Z M 383.5,479.5 C 384.358,492.408 385.691,505.408 387.5,518.5C 357.105,525.061 337.938,543.394 330,573.5C 325.267,590.895 321.934,608.562 320,626.5C 314.312,678.073 309.645,729.74 306,781.5C 305.489,783.878 304.822,786.212 304,788.5C 303.667,787.167 303.333,785.833 303,784.5C 301.456,724.509 301.123,664.509 302,604.5C 303.58,577.268 309.246,550.934 319,525.5C 325.765,509.438 336.931,497.605 352.5,490C 362.841,486.165 373.175,482.665 383.5,479.5 Z M 387.5,479.5 C 390.889,481.725 393.389,484.725 395,488.5C 400.517,513.851 403.517,539.518 404,565.5C 405.111,583.824 405.444,602.158 405,620.5C 399.558,582.848 394.225,545.182 389,507.5C 387.818,498.204 387.318,488.87 387.5,479.5 Z M 385.5,521.5 C 386.75,521.577 387.583,522.244 388,523.5C 394.87,567.384 400.87,611.384 406,655.5C 406.842,675.219 406.175,694.886 404,714.5C 403.239,718.251 402.072,718.417 400.5,715C 372.702,697.438 348.202,701.271 327,726.5C 319.8,737.239 314.466,748.906 311,761.5C 313.615,719.12 317.282,676.787 322,634.5C 324.271,609.141 329.605,584.475 338,560.5C 343.382,546.889 352.549,536.722 365.5,530C 372.14,526.839 378.807,524.006 385.5,521.5 Z"/></g>
<g><path style="opacity:1" fill="#060501" d="M 464.5,476.5 C 484.082,478.748 502.082,485.248 518.5,496C 532.432,509.353 541.599,525.52 546,544.5C 551.388,564.494 554.721,584.827 556,605.5C 556.872,665.509 556.539,725.509 555,785.5C 554.667,787.833 554.333,790.167 554,792.5C 552.688,794.658 551.022,794.991 549,793.5C 545.925,785.715 544.092,777.882 543.5,770C 540.265,759.298 536.432,748.798 532,738.5C 521.782,720.807 506.615,710.14 486.5,706.5C 473.599,708.369 462.099,713.369 452,721.5C 450.347,721.18 449.347,720.18 449,718.5C 448.007,714.558 447.34,710.558 447,706.5C 445.151,654.142 445.817,601.809 449,549.5C 449.685,531.35 451.685,513.35 455,495.5C 456.102,487.963 459.268,481.63 464.5,476.5 Z M 466.5,479.5 C 467.697,488.692 467.531,498.026 466,507.5C 460.775,545.182 455.442,582.848 450,620.5C 449.59,584.742 451.257,549.075 455,513.5C 455.914,505.016 457.581,496.683 460,488.5C 461.686,485.117 463.853,482.117 466.5,479.5 Z M 470.5,479.5 C 486.097,483.086 500.764,488.919 514.5,497C 524.195,504.541 531.362,514.041 536,525.5C 545.754,550.934 551.42,577.268 553,604.5C 553.877,664.509 553.544,724.509 552,784.5C 551.667,785.833 551.333,787.167 551,788.5C 550.178,786.212 549.511,783.878 549,781.5C 545.355,729.74 540.688,678.073 535,626.5C 533.066,608.562 529.733,590.895 525,573.5C 517.062,543.394 497.895,525.061 467.5,518.5C 469.623,505.598 470.623,492.598 470.5,479.5 Z M 467.5,521.5 C 490.617,526.285 507.117,539.285 517,560.5C 525.395,584.475 530.729,609.141 533,634.5C 537.718,676.787 541.385,719.12 544,761.5C 539.171,739.365 527.338,722.198 508.5,710C 496.262,703.068 483.595,702.068 470.5,707C 463.972,709.758 457.972,713.258 452.5,717.5C 451.749,716.624 451.249,715.624 451,714.5C 448.825,694.886 448.158,675.219 449,655.5C 454.193,610.679 460.36,566.012 467.5,521.5 Z"/></g>
</svg>
