<?xml version="1.0" encoding="UTF-8"?>
<!DOCTYPE svg PUBLIC "-//W3C//DTD SVG 1.1//EN" "http://www.w3.org/Graphics/SVG/1.1/DTD/svg11.dtd">
<svg xmlns="http://www.w3.org/2000/svg" version="1.1" width="854px" height="854px" style="shape-rendering:geometricPrecision; text-rendering:geometricPrecision; image-rendering:optimizeQuality; fill-rule:evenodd; clip-rule:evenodd" xmlns:xlink="http://www.w3.org/1999/xlink">
<g><path style="opacity:1" fill="#1e0b03" d="M 423.5,647.5 C 449.855,648.27 467.022,661.27 475,686.5C 478.78,698.651 479.447,710.985 477,723.5C 474.521,732.106 471.354,740.44 467.5,748.5C 466.635,749.583 465.635,749.749 464.5,749C 458.989,737.987 450.322,730.82 438.5,727.5C 437.029,728.381 436.196,729.714 436,731.5C 433.724,740.157 431.557,748.824 429.5,757.5C 428.167,757.5 426.833,757.5 425.5,757.5C 423.443,748.824 421.276,740.157 419,731.5C 418.804,729.714 417.971,728.381 416.5,727.5C 404.678,730.82 396.011,737.987 390.5,749C 389.365,749.749 388.365,749.583 387.5,748.5C 371.495,719.423 372.995,691.423 392,664.5C 400.509,654.998 411.009,649.331 423.5,647.5 Z M 424.5,650.5 C 439.811,650.87 452.311,656.87 462,668.5C 478.514,692.938 479.848,718.271 466,744.5C 452.073,725.051 433.573,718.884 410.5,726C 407.833,727.333 405.167,728.667 402.5,730C 397.689,734.48 393.189,739.313 389,744.5C 372.441,712.483 376.941,683.983 402.5,659C 409.454,654.939 416.787,652.106 424.5,650.5 Z M 424.5,725.5 C 427.91,725.457 431.243,725.957 434.5,727C 432.244,734.522 429.911,742.022 427.5,749.5C 425.089,742.022 422.756,734.522 420.5,727C 422.058,726.79 423.391,726.29 424.5,725.5 Z"/></g>
</svg>
