<?xml version="1.0" encoding="UTF-8"?>
<!DOCTYPE svg PUBLIC "-//W3C//DTD SVG 1.1//EN" "http://www.w3.org/Graphics/SVG/1.1/DTD/svg11.dtd">
<svg xmlns="http://www.w3.org/2000/svg" version="1.1" width="854px" height="854px" style="shape-rendering:geometricPrecision; text-rendering:geometricPrecision; image-rendering:optimizeQuality; fill-rule:evenodd; clip-rule:evenodd" xmlns:xlink="http://www.w3.org/1999/xlink">
<g><path style="opacity:1" fill="#090401" d="M 416.5,215.5 C 441.566,211.778 459.066,221.444 469,244.5C 468.846,290.268 466.513,335.935 462,381.5C 460.583,397.585 457.25,413.252 452,428.5C 448.319,436.517 442.819,443.017 435.5,448C 430.167,450 424.833,450 419.5,448C 407.381,439.278 400.214,427.445 398,412.5C 395.254,399.28 393.254,385.946 392,372.5C 388.152,329.909 386.152,287.242 386,244.5C 391.846,230.15 402.013,220.484 416.5,215.5 Z M 416.5,218.5 C 423.841,218.334 431.174,218.5 438.5,219C 448.189,222.539 451.189,229.039 447.5,238.5C 442.982,242.256 437.816,244.589 432,245.5C 424.658,245.881 417.491,244.381 410.5,241C 404.23,235.412 403.897,229.412 409.5,223C 411.898,221.476 414.231,219.976 416.5,218.5 Z M 401.5,226.5 C 402.239,226.369 402.906,226.536 403.5,227C 402.718,229.74 402.218,232.574 402,235.5C 400.22,234.406 398.386,233.406 396.5,232.5C 398.19,230.481 399.856,228.481 401.5,226.5 Z M 451.5,227.5 C 451.897,226.475 452.563,226.308 453.5,227C 455.351,228.684 457.018,230.517 458.5,232.5C 456.614,233.406 454.78,234.406 453,235.5C 452.817,232.635 452.317,229.969 451.5,227.5 Z M 395.5,236.5 C 401.114,237.808 403.781,241.475 403.5,247.5C 399.798,257.166 397.298,267.166 396,277.5C 394.146,293.121 392.813,308.788 392,324.5C 390.151,301.027 388.651,277.527 387.5,254C 387.138,246.569 389.805,240.735 395.5,236.5 Z M 456.5,236.5 C 459.777,236.422 462.277,237.756 464,240.5C 466.178,244.72 467.345,249.22 467.5,254C 466.349,277.527 464.849,301.027 463,324.5C 462.187,308.788 460.854,293.121 459,277.5C 457.702,267.166 455.202,257.166 451.5,247.5C 451.531,242.963 453.198,239.296 456.5,236.5 Z M 406.5,250.5 C 406.457,247.413 406.29,244.413 406,241.5C 408.469,243.652 411.302,245.152 414.5,246C 411.676,247.245 409.009,248.745 406.5,250.5 Z M 448.5,250.5 C 445.991,248.745 443.324,247.245 440.5,246C 443.698,245.152 446.531,243.652 449,241.5C 448.71,244.413 448.543,247.413 448.5,250.5 Z M 422.5,247.5 C 430.548,247.143 438.215,248.643 445.5,252C 448.433,254.264 450.6,257.098 452,260.5C 454.525,268.313 456.191,276.313 457,284.5C 458.624,306.075 460.457,327.575 462.5,349C 461.03,365.154 459.197,381.32 457,397.5C 455.409,410.94 451.409,423.606 445,435.5C 440.619,441.729 434.786,445.729 427.5,447.5C 416.602,443.77 409.102,436.436 405,425.5C 401.726,416.403 399.392,407.07 398,397.5C 395.803,381.32 393.97,365.154 392.5,349C 394.543,327.575 396.376,306.075 398,284.5C 398.686,274.73 401.019,265.397 405,256.5C 409.758,251.205 415.592,248.205 422.5,247.5 Z"/></g>
</svg>
